<svg width="25" height="25" viewBox="0 0 25 25" fill="none" xmlns="http://www.w3.org/2000/svg">
<path d="M0.315502 8.9322C1.82581 14.9325 10.0729 23.1851 16.072 24.6886C16.8819 24.8939 17.714 24.9985 18.5494 25C20.1371 24.9993 21.7003 24.609 23.102 23.8636C23.5931 23.6071 24.017 23.2387 24.3396 22.7881C24.6621 22.3376 24.8742 21.8175 24.9587 21.2699C25.0432 20.7223 24.9977 20.1625 24.826 19.6357C24.6543 19.1089 24.3612 18.6298 23.9702 18.2372L21.5996 15.8666C21.0971 15.3643 20.4549 15.025 19.7568 14.8931C19.0586 14.7611 18.3369 14.8426 17.6858 15.1268C17.0645 15.3951 16.4979 15.7753 16.0141 16.2485C15.8118 16.4496 15.4391 16.4814 14.9038 16.336C13.5006 15.7657 12.2257 14.9201 11.1546 13.8492C10.0834 12.7782 9.23764 11.5036 8.66709 10.1004C8.5239 9.56518 8.55345 9.1913 8.75574 8.99015C9.22943 8.5057 9.61002 7.93829 9.87852 7.31621C10.1621 6.6653 10.2432 5.9441 10.1113 5.24646C9.97931 4.54882 9.64043 3.90705 9.13871 3.40466L6.76813 1.03523C6.37997 0.642323 5.90395 0.34735 5.37934 0.174653C4.85472 0.00195738 4.29656 -0.0435101 3.75092 0.0420032C3.19908 0.123042 2.67438 0.333946 2.21997 0.657363C1.76556 0.98078 1.39444 1.40747 1.13714 1.90232C-0.00758212 4.05999 -0.300795 6.56871 0.315502 8.9322ZM3.15202 2.95691C3.24478 2.77934 3.37833 2.6263 3.5417 2.51034C3.70507 2.39438 3.89361 2.31881 4.09184 2.28984C4.15461 2.27984 4.21807 2.2749 4.28163 2.27506C4.44524 2.27501 4.60723 2.30743 4.75821 2.37043C4.9092 2.43344 5.04618 2.52579 5.16122 2.64213L7.53067 5.01156C7.70886 5.18765 7.83002 5.41323 7.87846 5.65903C7.92689 5.90482 7.90034 6.1595 7.80227 6.39003C7.64708 6.76 7.42563 7.09852 7.14883 7.38894C6.74235 7.822 6.46436 8.35959 6.34595 8.94161C6.22754 9.52362 6.27338 10.1271 6.47834 10.6846C7.29884 13.7529 11.257 17.7065 14.3197 18.5258C14.8793 18.7304 15.4849 18.775 16.0684 18.6545C16.6519 18.5341 17.1904 18.2534 17.6233 17.844C17.912 17.5675 18.2485 17.3457 18.6165 17.1894C18.8472 17.0911 19.1021 17.0644 19.3481 17.1128C19.5941 17.1613 19.8199 17.2826 19.9961 17.461L22.3656 19.8304C22.5048 19.9682 22.6094 20.1372 22.6706 20.3233C22.7319 20.5094 22.7481 20.7074 22.7179 20.9009C22.6883 21.0994 22.612 21.2881 22.4952 21.4513C22.3785 21.6145 22.2246 21.7476 22.0462 21.8396C20.3869 22.7314 18.4501 22.9573 16.63 22.4715C11.4661 21.1862 3.8191 13.5392 2.51903 8.37762C2.03381 6.55591 2.26013 4.61782 3.15202 2.95691Z" fill="#F3F4F6"/>
</svg>
