<svg width="25" height="25" viewBox="0 0 25 25" fill="none" xmlns="http://www.w3.org/2000/svg">
<path d="M9.79067 3.52266C9.39741 4.81643 9.28847 6.18005 9.47133 7.51992C9.65419 8.8598 10.1245 10.1442 10.85 11.2851C11.5756 12.4259 12.5391 13.3962 13.6746 14.1292C14.81 14.8623 16.0905 15.3408 17.4281 15.532C17.8678 15.5936 18.3112 15.6247 18.7551 15.625C19.678 15.6264 20.5961 15.4911 21.4794 15.2234C20.9465 16.949 19.9308 18.4857 18.5526 19.6516C17.1743 20.8176 15.4911 21.5639 13.7023 21.8023C13.3068 21.8506 12.9087 21.8748 12.5103 21.875C10.2605 21.8799 8.08418 21.0743 6.37907 19.6055C4.67395 18.1366 3.55399 16.1027 3.22394 13.8754C2.89388 11.6482 3.37578 9.37642 4.58153 7.47549C5.78729 5.57457 7.63634 4.17145 9.79067 3.52266ZM12.5103 0C11.9328 0.000273627 11.3559 0.0394245 10.7836 0.117188C7.64705 0.550051 4.79183 2.159 2.79548 4.6186C0.799126 7.07819 -0.189335 10.2048 0.0300329 13.3661C0.249401 16.5273 1.66022 19.4872 3.97713 21.647C6.29403 23.8067 9.34407 25.0052 12.5103 25C13.0348 24.9999 13.5587 24.9678 14.0793 24.9039C16.7998 24.5544 19.3305 23.3205 21.2823 21.3918C23.2341 19.463 24.4991 16.9463 24.8829 14.2281C24.9625 13.6409 25.0016 13.0489 24.9999 12.4563C24.9987 12.2535 24.9571 12.053 24.8776 11.8664C24.7981 11.6799 24.6824 11.511 24.5371 11.3697C24.3918 11.2284 24.2199 11.1174 24.0313 11.0432C23.8427 10.969 23.6413 10.933 23.4387 10.9375C23.0922 10.938 22.7552 11.0512 22.4786 11.2602C21.4043 12.066 20.0977 12.5011 18.7551 12.5C18.4548 12.4999 18.1549 12.479 17.8574 12.4375C16.7861 12.2831 15.7733 11.8524 14.9185 11.1878C14.0637 10.5232 13.3963 9.64758 12.9818 8.64683C12.5674 7.64608 12.4201 6.55465 12.5545 5.47972C12.6889 4.40479 13.1003 3.38332 13.7483 2.51562C13.907 2.28291 14.002 2.01264 14.0238 1.73175C14.0457 1.45085 13.9936 1.16914 13.8728 0.914664C13.7519 0.660189 13.5666 0.441836 13.3352 0.281355C13.1039 0.120875 12.8345 0.0238689 12.554 0L12.5103 0Z" fill="black"/>
</svg>
