<svg width="25" height="25" viewBox="0 0 25 25" fill="none" xmlns="http://www.w3.org/2000/svg">
<path d="M3.36709 11.7143H0V13.2858H3.36709V11.7143Z" fill="#18181B"/>
<path d="M25 11.7143H21.6337V13.2858H25V11.7143Z" fill="#18181B"/>
<path d="M1.28162 18.0692L2.06741 19.4308L4.98303 17.7473L4.19729 16.386L1.28162 18.0692Z" fill="#18181B"/>
<path d="M23.7184 6.93037L22.9325 5.56918L20.017 7.25273L20.8027 8.61391L23.7184 6.93037Z" fill="#18181B"/>
<path d="M5.56958 22.9325L6.93081 23.7184L8.61436 20.8027L7.25313 20.0169L5.56958 22.9325Z" fill="#18181B"/>
<path d="M19.4313 2.06744L18.0692 1.28165L16.3865 4.19732L17.7477 4.98306L19.4313 2.06744Z" fill="#18181B"/>
<path d="M13.2862 21.6334H11.7147V25H13.2862V21.6334Z" fill="#18181B"/>
<path d="M13.2862 0H11.7147V3.36665H13.2862V0Z" fill="#18181B"/>
<path d="M16.3865 20.8027L18.0692 23.7184L19.4313 22.9325L17.7477 20.0169L16.3865 20.8027Z" fill="#18181B"/>
<path d="M8.61436 4.19732L6.93081 1.28165L5.56958 2.06744L7.25313 4.98306L8.61436 4.19732Z" fill="#18181B"/>
<path d="M20.017 17.7473L22.9325 19.4308L23.7184 18.0692L20.8027 16.386L20.017 17.7473Z" fill="#18181B"/>
<path d="M4.98303 7.25273L2.06741 5.56918L1.28162 6.93037L4.19729 8.61391L4.98303 7.25273Z" fill="#18181B"/>
<path d="M12.5004 4.87921C8.29111 4.87921 4.87964 8.29117 4.87964 12.5C4.87964 16.7088 8.29116 20.1208 12.5004 20.1208C16.7088 20.1208 20.1212 16.7088 20.1212 12.5C20.1212 8.29113 16.7088 4.87921 12.5004 4.87921Z" fill="#18181B"/>
</svg>
